<svg width="30" height="30" viewBox="0 0 30 30" fill="none" xmlns="http://www.w3.org/2000/svg">
<path d="M24.375 6.5625H21.1266L19.5293 4.16719C19.4437 4.03893 19.3278 3.93375 19.1919 3.86098C19.056 3.78821 18.9042 3.75009 18.75 3.75H11.25C11.0958 3.75009 10.944 3.78821 10.8081 3.86098C10.6722 3.93375 10.5563 4.03893 10.4707 4.16719L8.87227 6.5625H5.625C4.87908 6.5625 4.16371 6.85882 3.63626 7.38626C3.10882 7.91371 2.8125 8.62908 2.8125 9.375V22.5C2.8125 23.2459 3.10882 23.9613 3.63626 24.4887C4.16371 25.0162 4.87908 25.3125 5.625 25.3125H24.375C25.1209 25.3125 25.8363 25.0162 26.3637 24.4887C26.8912 23.9613 27.1875 23.2459 27.1875 22.5V9.375C27.1875 8.62908 26.8912 7.91371 26.3637 7.38626C25.8363 6.85882 25.1209 6.5625 24.375 6.5625ZM19.2188 15.4688C19.2188 16.3031 18.9713 17.1188 18.5078 17.8126C18.0442 18.5063 17.3853 19.0471 16.6144 19.3664C15.8436 19.6857 14.9953 19.7692 14.177 19.6064C13.3586 19.4437 12.6069 19.0419 12.0169 18.4519C11.4269 17.8619 11.0251 17.1101 10.8623 16.2918C10.6995 15.4734 10.7831 14.6252 11.1024 13.8543C11.4217 13.0834 11.9624 12.4246 12.6562 11.961C13.35 11.4974 14.1656 11.25 15 11.25C16.1189 11.25 17.1919 11.6945 17.9831 12.4856C18.7743 13.2768 19.2188 14.3499 19.2188 15.4688Z" fill="#364960"/>
</svg>
