<svg width="25" height="24" viewBox="0 0 25 24" fill="none" xmlns="http://www.w3.org/2000/svg">
<path d="M18.5699 16.83L18.9599 19.99C19.0599 20.82 18.1699 21.4 17.4599 20.97L13.2699 18.48C12.8099 18.48 12.36 18.45 11.92 18.39C12.66 17.52 13.0999 16.42 13.0999 15.23C13.0999 12.39 10.6399 10.09 7.59995 10.09C6.43995 10.09 5.36995 10.42 4.47995 11C4.44995 10.75 4.43994 10.5 4.43994 10.24C4.43994 5.68999 8.38994 2 13.2699 2C18.1499 2 22.0999 5.68999 22.0999 10.24C22.0999 12.94 20.7099 15.33 18.5699 16.83Z" stroke="#292D32" stroke-width="1.5" stroke-linecap="round" stroke-linejoin="round"/>
<path d="M13.1 15.2298C13.1 16.4198 12.66 17.5198 11.92 18.3898C10.93 19.5898 9.35998 20.3598 7.59998 20.3598L4.98997 21.9098C4.54997 22.1798 3.98997 21.8098 4.04997 21.2998L4.29997 19.3298C2.95997 18.3998 2.09998 16.9098 2.09998 15.2298C2.09998 13.4698 3.03998 11.9198 4.47998 10.9998C5.36998 10.4198 6.43998 10.0898 7.59998 10.0898C10.64 10.0898 13.1 12.3898 13.1 15.2298Z" stroke="#292D32" stroke-width="1.5" stroke-linecap="round" stroke-linejoin="round"/>
</svg>
