<svg width="20" height="20" viewBox="0 0 20 20" fill="none" xmlns="http://www.w3.org/2000/svg">
<path d="M2.5 9.58336C2.49713 10.6832 2.75411 11.7683 3.25 12.75C3.83797 13.9265 4.74188 14.916 5.86046 15.6078C6.97904 16.2995 8.26813 16.6662 9.58333 16.6667C10.6832 16.6696 11.7682 16.4126 12.75 15.9167L17.5 17.5L15.9167 12.75C16.4126 11.7683 16.6695 10.6832 16.6667 9.58336C16.6662 8.26815 16.2995 6.97907 15.6077 5.86048C14.916 4.7419 13.9265 3.838 12.75 3.25002C11.7682 2.75413 10.6832 2.49716 9.58333 2.50002H9.16667C7.42971 2.59585 5.78913 3.32899 4.55905 4.55907C3.32897 5.78915 2.59583 7.42973 2.5 9.16669V9.58336Z" stroke="#141414" stroke-width="1.5" stroke-linecap="round" stroke-linejoin="round"/>
</svg>
