<svg width="19" height="18" viewBox="0 0 19 18" fill="none" xmlns="http://www.w3.org/2000/svg">
<path d="M7.43519 2.81806L7.4407 2.81358L7.44608 2.80895L8.63029 1.78963C8.63043 1.78951 8.63057 1.78939 8.6307 1.78928C9.17835 1.32024 10.0489 1.32024 10.5966 1.78928C10.5967 1.78939 10.5969 1.78951 10.597 1.78963L11.7801 2.80798C11.9103 2.92122 12.0841 2.99865 12.2132 3.04497C12.3451 3.09235 12.5223 3.14 12.6849 3.14H13.9599C14.7938 3.14 15.4699 3.81614 15.4699 4.65V5.925C15.4699 6.09294 15.5223 6.2737 15.5713 6.40381C15.6201 6.53356 15.6993 6.70327 15.8096 6.82997L16.8278 8.0129C16.8279 8.013 16.8279 8.01311 16.828 8.01321C17.2972 8.56091 17.2972 9.43173 16.8279 9.97939C16.8279 9.97946 16.8278 9.97953 16.8278 9.9796L15.8096 11.1625C15.6993 11.2892 15.6201 11.4589 15.5713 11.5887C15.5223 11.7188 15.4699 11.8996 15.4699 12.0675V13.3425C15.4699 14.1764 14.7938 14.8525 13.9599 14.8525H12.6849C12.5176 14.8525 12.3372 14.9047 12.2096 14.9516C12.0804 14.9991 11.9152 15.0744 11.7921 15.1744L11.7866 15.1789L11.7812 15.1836L10.5962 16.2036L10.5962 16.2035L10.5926 16.2067C10.3253 16.4413 9.9735 16.5625 9.6099 16.5625C9.24604 16.5625 8.89209 16.441 8.6232 16.2107C8.62306 16.2106 8.62293 16.2105 8.62279 16.2104L7.43972 15.192C7.30945 15.0788 7.13568 15.0014 7.00664 14.955C6.87467 14.9077 6.69746 14.86 6.5349 14.86H5.2449C4.41104 14.86 3.7349 14.1839 3.7349 13.35V12.0675C3.7349 11.9039 3.68673 11.7278 3.63893 11.5969C3.59203 11.4685 3.51499 11.2998 3.4042 11.1717L2.39424 9.98221C2.39417 9.98212 2.39409 9.98203 2.39402 9.98195C1.93691 9.44093 1.93686 8.56681 2.39387 8.02573C2.39399 8.02558 2.39412 8.02544 2.39424 8.0253L3.4042 6.83579C3.51499 6.70773 3.59203 6.539 3.63893 6.41059C3.68673 6.27971 3.7349 6.10361 3.7349 5.94V4.65C3.7349 3.81614 4.41104 3.14 5.2449 3.14H6.5424C6.70974 3.14 6.8901 3.08776 7.01769 3.04087C7.14694 2.99337 7.31208 2.91809 7.43519 2.81806Z" fill="#5DC482" stroke="#5DC482"/>
<path d="M8.70241 11.3775C8.55241 11.3775 8.40991 11.3175 8.30491 11.2125L6.48991 9.39746C6.27241 9.17996 6.27241 8.81996 6.48991 8.60246C6.70741 8.38496 7.06741 8.38496 7.28491 8.60246L8.70241 10.02L11.9274 6.79496C12.1449 6.57746 12.5049 6.57746 12.7224 6.79496C12.9399 7.01246 12.9399 7.37246 12.7224 7.58996L9.09991 11.2125C8.99491 11.3175 8.85241 11.3775 8.70241 11.3775Z" fill="white"/>
</svg>
