<svg width="30" height="30" viewBox="0 0 30 30" fill="none" xmlns="http://www.w3.org/2000/svg">
<path d="M8.77778 8H21.2222C21.4285 8 21.6263 8.08324 21.7722 8.23142C21.9181 8.37959 22 8.58056 22 8.79011V10.0432C22 10.2528 21.918 10.4537 21.7721 10.6018L16.7834 15.6696C16.6376 15.8178 16.5556 16.0187 16.5556 16.2282V21.2099C16.5556 21.33 16.5286 21.4485 16.4767 21.5565C16.4249 21.6644 16.3495 21.7589 16.2563 21.8328C16.1631 21.9067 16.0545 21.958 15.9388 21.9829C15.8232 22.0077 15.7035 22.0055 15.5888 21.9763L14.0332 21.5813C13.865 21.5385 13.7157 21.4398 13.6091 21.3009C13.5024 21.1621 13.4444 20.991 13.4444 20.8149V16.2282C13.4444 16.0187 13.3624 15.8178 13.2166 15.6696L8.22789 10.6018C8.08202 10.4537 8.00004 10.2528 8 10.0432V8.79011C8 8.58056 8.08194 8.37959 8.22781 8.23142C8.37367 8.08324 8.5715 8 8.77778 8Z" stroke="#364960" stroke-width="1.5" stroke-linecap="round" stroke-linejoin="round"/>
</svg>
