<svg width="30" height="30" viewBox="0 0 30 30" fill="none" xmlns="http://www.w3.org/2000/svg">
<path d="M25.465 2.1665H22.035C21.02 2.1665 20.2733 2.5865 19.935 3.33317C19.7483 3.67151 19.6666 4.06817 19.6666 4.53484V7.96484C19.6666 9.44651 20.5533 10.3332 22.035 10.3332H25.465C25.9316 10.3332 26.3283 10.2515 26.6666 10.0648C27.4133 9.72651 27.8333 8.97984 27.8333 7.96484V4.53484C27.8333 3.05317 26.9466 2.1665 25.465 2.1665ZM26.5616 6.75151C26.445 6.86817 26.27 6.94984 26.0833 6.96151H24.4383V7.55651L24.45 8.58318C24.4383 8.78151 24.3683 8.94484 24.2283 9.08484C24.1116 9.20151 23.9366 9.28318 23.75 9.28318C23.365 9.28318 23.05 8.96818 23.05 8.58318V6.94984L21.4166 6.96151C21.0316 6.96151 20.7166 6.63484 20.7166 6.24984C20.7166 5.86484 21.0316 5.54984 21.4166 5.54984L22.4433 5.56151H23.05V3.92817C23.05 3.54317 23.365 3.2165 23.75 3.2165C24.135 3.2165 24.45 3.54317 24.45 3.92817L24.4383 4.75651V5.54984H26.0833C26.4683 5.54984 26.7833 5.86484 26.7833 6.24984C26.7716 6.44817 26.69 6.61151 26.5616 6.75151Z" fill="#364960"/>
<path d="M11.5001 13.11C13.0336 13.11 14.2767 11.8668 14.2767 10.3333C14.2767 8.7998 13.0336 7.55664 11.5001 7.55664C9.96655 7.55664 8.72339 8.7998 8.72339 10.3333C8.72339 11.8668 9.96655 13.11 11.5001 13.11Z" fill="#364960"/>
<path d="M25.4649 10.333H24.9166V15.7114L24.7649 15.583C23.8549 14.8014 22.3849 14.8014 21.4749 15.583L16.6216 19.748C15.7116 20.5297 14.2416 20.5297 13.3316 19.748L12.9349 19.4214C12.1066 18.698 10.7883 18.628 9.85492 19.258L5.49159 22.1864C5.23492 21.533 5.08325 20.7747 5.08325 19.888V10.1113C5.08325 6.82134 6.82159 5.08301 10.1116 5.08301H19.6666V4.53468C19.6666 4.06801 19.7483 3.67134 19.9349 3.33301H10.1116C5.86492 3.33301 3.33325 5.86468 3.33325 10.1113V19.888C3.33325 21.1597 3.55492 22.268 3.98659 23.2014C4.98992 25.418 7.13659 26.6664 10.1116 26.6664H19.8883C24.1349 26.6664 26.6666 24.1347 26.6666 19.888V10.0647C26.3283 10.2513 25.9316 10.333 25.4649 10.333Z" fill="#364960"/>
</svg>
