<svg width="101" height="18" viewBox="0 0 101 18" fill="none" xmlns="http://www.w3.org/2000/svg">
<path d="M14.4213 0.739696C14.4213 1.15343 14.4169 1.55015 14.4086 1.92854C14.3997 2.30561 14.3959 2.684 14.3959 3.06239C14.3959 3.47613 14.4086 3.90688 14.434 4.35335C14.4595 4.80048 14.4722 5.25677 14.4722 5.72288H14.1694C14.0689 4.13994 13.5511 2.87516 12.6148 1.92854C11.6785 0.980606 10.3739 0.506641 8.70164 0.506641C8.03311 0.506641 7.35187 0.696489 6.65854 1.07488C5.96457 1.45392 5.33675 2.01364 4.77572 2.75339C4.21597 3.4938 3.76053 4.40573 3.40941 5.48982C3.0583 6.57392 2.88274 7.82168 2.88274 9.23179C2.88274 10.075 2.9826 10.9784 3.18297 11.942C3.38461 12.9057 3.71537 13.8012 4.17526 14.6287C4.63451 15.4549 5.23625 16.139 5.9792 16.6817C6.72342 17.2231 7.63938 17.4935 8.72708 17.4935C9.54636 17.4935 10.2982 17.3599 10.9839 17.0928C11.6709 16.8257 12.2599 16.4395 12.7522 15.9328C13.2458 15.4248 13.6338 14.8186 13.9175 14.1129C14.2025 13.4058 14.3615 12.6144 14.3959 11.7378H14.6961C14.6961 12.2353 14.6834 12.7643 14.6579 13.3247C14.6338 13.8837 14.6223 14.3263 14.6223 14.6523C14.6223 14.8251 14.6223 14.9894 14.6223 15.1446C14.6223 15.2984 14.6261 15.4706 14.635 15.6604C14.6433 15.849 14.6516 16.0729 14.6605 16.3308C14.6688 16.5894 14.6808 16.9082 14.6961 17.2866H14.4468L13.8437 16.2287C13.6943 16.3491 13.4774 16.5049 13.1924 16.6948C12.9074 16.8833 12.5519 17.0732 12.1263 17.263C11.7001 17.4516 11.2027 17.6139 10.6328 17.7501C10.0641 17.8876 9.42041 17.9569 8.70164 17.9569C7.44792 17.9569 6.29024 17.7638 5.22862 17.3782C4.16636 16.9907 3.24658 16.4224 2.46801 15.6735C1.69071 14.9246 1.08516 13.9911 0.651351 12.8716C0.216905 11.7528 0 10.454 0 8.97517C0 7.7536 0.221357 6.60469 0.664073 5.5291C1.10679 4.45417 1.72061 3.51213 2.50617 2.70364C3.29301 1.89384 4.21724 1.25229 5.2795 0.778975C6.34113 0.306319 7.4988 0.0693359 8.75253 0.0693359C9.68884 0.0693359 10.5705 0.212049 11.3986 0.496167C12.2262 0.778975 12.9997 1.17045 13.7191 1.6693L14.1694 0.739696H14.4213Z" fill="black"/>
<path d="M27.2595 0.378418C27.7614 0.378418 28.1628 0.383001 28.463 0.391511C28.7645 0.400676 29.024 0.413769 29.2416 0.43079C29.4585 0.448465 29.6589 0.461558 29.8421 0.470069C30.0265 0.47727 30.2606 0.480543 30.5443 0.480543C30.8121 0.480543 31.0417 0.47727 31.2338 0.470069C31.4272 0.461558 31.632 0.448465 31.8495 0.43079C32.0664 0.413769 32.3253 0.400676 32.6256 0.391511C32.9271 0.383001 33.3291 0.378418 33.8316 0.378418V0.637659C33.5631 0.637659 33.3081 0.659917 33.0657 0.703123C32.8227 0.745021 32.609 0.826197 32.4246 0.946653C32.2414 1.06711 32.0951 1.2347 31.9869 1.44942C31.8782 1.66415 31.8241 1.95219 31.8241 2.31356V15.7129C31.8241 16.0743 31.8782 16.3623 31.9869 16.577C32.0951 16.7918 32.2414 16.9593 32.4246 17.0798C32.609 17.2003 32.8227 17.2827 33.0657 17.326C33.3081 17.3678 33.5631 17.3888 33.8316 17.3888V17.648C33.3291 17.648 32.9271 17.6441 32.6256 17.6349C32.3253 17.6264 32.0664 17.6133 31.8495 17.5957C31.632 17.5786 31.4272 17.5662 31.2338 17.559C31.0417 17.5505 30.8121 17.5459 30.5443 17.5459C30.2606 17.5459 30.0265 17.5505 29.8421 17.559C29.6589 17.5662 29.4585 17.5786 29.2416 17.5957C29.024 17.6133 28.7645 17.6264 28.463 17.6349C28.1628 17.6441 27.7614 17.648 27.2595 17.648V17.3888C27.5273 17.3888 27.7824 17.3678 28.0254 17.326C28.2677 17.2827 28.4808 17.2003 28.664 17.0798C28.8472 16.9593 28.9929 16.7918 29.1016 16.577C29.2117 16.3623 29.267 16.0743 29.267 15.7129V9.02501H21.4406V15.7129C21.4406 16.0743 21.4947 16.3623 21.6035 16.577C21.7116 16.7918 21.8579 16.9593 22.0411 17.0798C22.2256 17.2003 22.4393 17.2827 22.6823 17.326C22.9246 17.3678 23.1797 17.3888 23.4481 17.3888V17.648C22.9456 17.648 22.5436 17.6441 22.2421 17.6349C21.9419 17.6264 21.683 17.6133 21.4661 17.5957C21.2485 17.5786 21.0437 17.5662 20.8504 17.559C20.6583 17.5505 20.4286 17.5459 20.1608 17.5459C19.8771 17.5459 19.6431 17.5505 19.4586 17.559C19.2754 17.5662 19.0744 17.5786 18.8556 17.5957C18.6381 17.6133 18.3785 17.6264 18.077 17.6349C17.7768 17.6441 17.3761 17.648 16.8761 17.648V17.3888C17.142 17.3888 17.3964 17.3678 17.6394 17.326C17.8817 17.2827 18.0948 17.2003 18.278 17.0798C18.4625 16.9593 18.6094 16.7918 18.7182 16.577C18.8263 16.3623 18.881 16.0743 18.881 15.7129V2.31356C18.881 1.95219 18.8263 1.66415 18.7182 1.44942C18.6094 1.2347 18.4625 1.06711 18.278 0.946653C18.0948 0.826197 17.8817 0.745021 17.6394 0.703123C17.3964 0.659917 17.142 0.637659 16.8761 0.637659V0.378418C17.3761 0.378418 17.7768 0.383001 18.077 0.391511C18.3785 0.400676 18.6381 0.413769 18.8556 0.43079C19.0744 0.448465 19.2754 0.461558 19.4586 0.470069C19.6431 0.47727 19.8771 0.480543 20.1608 0.480543C20.4286 0.480543 20.6583 0.47727 20.8504 0.470069C21.0437 0.461558 21.2485 0.448465 21.4661 0.43079C21.683 0.413769 21.9419 0.400676 22.2421 0.391511C22.5436 0.383001 22.9456 0.378418 23.4481 0.378418V0.637659C23.1797 0.637659 22.9246 0.659917 22.6823 0.703123C22.4393 0.745021 22.2256 0.826197 22.0411 0.946653C21.8579 1.06711 21.7116 1.2347 21.6035 1.44942C21.4947 1.66415 21.4406 1.95219 21.4406 2.31356V8.56152H29.267V2.31356C29.267 1.95219 29.2117 1.66415 29.1016 1.44942C28.9929 1.2347 28.8472 1.06711 28.664 0.946653C28.4808 0.826197 28.2677 0.745021 28.0254 0.703123C27.7824 0.659917 27.5273 0.637659 27.2595 0.637659V0.378418Z" fill="black"/>
<path d="M34.631 17.3885C35.8332 17.3885 36.6696 16.7437 37.1397 15.4534L42.7576 0.0429688H43.2334L48.9022 15.3251C49.1852 16.0832 49.5026 16.616 49.8538 16.925C50.2062 17.234 50.6832 17.3885 51.2837 17.3885V17.6478C50.7831 17.6478 50.3862 17.6438 50.0929 17.6347C49.801 17.6262 49.5497 17.6177 49.3398 17.6085C49.1312 17.6 48.9384 17.5915 48.7622 17.5823C48.5873 17.5738 48.3742 17.5692 48.1236 17.5692C47.8724 17.5692 47.6586 17.5738 47.4824 17.5823C47.3075 17.5915 47.1161 17.6 46.9074 17.6085C46.6988 17.6177 46.4348 17.6262 46.1161 17.6347C45.7987 17.6438 45.3732 17.6478 44.8389 17.6478V17.3885C45.0386 17.3885 45.2345 17.3767 45.4266 17.3519C45.62 17.3257 45.7994 17.2746 45.966 17.1974C46.1339 17.1188 46.2675 17.0075 46.368 16.8622C46.4679 16.7155 46.5181 16.5296 46.5181 16.3044C46.5181 16.1159 46.4882 15.9188 46.4291 15.7126C46.3712 15.5051 46.3095 15.3159 46.2433 15.1444L44.6124 10.7294H39.3456L37.6893 15.4272C37.5888 15.7382 37.5392 16.0053 37.5392 16.2285C37.5392 16.4694 37.5888 16.6678 37.6893 16.8229C37.791 16.9768 37.9164 17.0972 38.0658 17.1843C38.2166 17.27 38.3877 17.3257 38.5798 17.3519C38.7732 17.3767 38.9614 17.3885 39.1446 17.3885V17.6478C38.7935 17.6478 38.5092 17.6438 38.2923 17.6347C38.0747 17.6262 37.8909 17.6177 37.7402 17.6085C37.5888 17.6 37.4507 17.5915 37.3254 17.5823C37.2014 17.5738 37.0557 17.5692 36.8878 17.5692C36.7027 17.5692 36.5475 17.5738 36.4222 17.5823C36.2982 17.5915 36.1608 17.6 36.01 17.6085C35.8586 17.6177 35.6748 17.6262 35.4579 17.6347C35.2404 17.6438 34.9649 17.6478 34.631 17.6478V17.3885ZM44.4623 10.266L42.0554 3.26907L39.4958 10.266H44.4623Z" fill="black"/>
<path d="M52.3343 17.3888C52.6021 17.3888 52.8572 17.3679 53.1002 17.326C53.3425 17.2827 53.5556 17.2003 53.7388 17.0798C53.9233 16.9594 54.0702 16.7918 54.179 16.577C54.2871 16.3623 54.3418 16.0743 54.3418 15.7129V2.44449L53.7897 1.72176C53.5556 1.41145 53.2999 1.15287 53.0238 0.946653C52.7491 0.741093 52.3935 0.637659 51.9578 0.637659V0.378418C52.2593 0.378418 52.5188 0.383001 52.7363 0.391511C52.9532 0.400676 53.1492 0.409186 53.3241 0.417697C53.5003 0.426862 53.6599 0.435372 53.8024 0.443883C53.9449 0.453048 54.1077 0.456976 54.2909 0.456976C54.4588 0.456976 54.6013 0.453048 54.7184 0.443883C54.8354 0.435372 54.9525 0.426862 55.0695 0.417697C55.1865 0.409186 55.3118 0.400676 55.4461 0.391511C55.5796 0.383001 55.7469 0.378418 55.9473 0.378418L66.3816 13.5945V2.31356C66.3816 1.95219 66.3269 1.66415 66.2188 1.44942C66.11 1.2347 65.9631 1.06711 65.7786 0.946653C65.5954 0.826197 65.3823 0.745021 65.14 0.703124C64.897 0.659917 64.6419 0.637659 64.3741 0.637659V0.378418C64.7081 0.378418 64.9752 0.383001 65.1756 0.391511C65.3772 0.400676 65.5528 0.409186 65.7023 0.417697C65.853 0.426862 65.9955 0.435372 66.1297 0.443883C66.2633 0.453048 66.423 0.456976 66.6081 0.456976C66.7913 0.456976 66.9496 0.453048 67.0839 0.443883C67.2174 0.435372 67.3593 0.426862 67.5088 0.417697C67.6595 0.409186 67.8395 0.400676 68.0482 0.391511C68.2581 0.383001 68.5303 0.378418 68.8649 0.378418V0.637659C68.5965 0.637659 68.3414 0.659917 68.099 0.703124C67.8561 0.745021 67.6423 0.826197 67.4579 0.946653C67.2747 1.06711 67.1284 1.2347 67.0202 1.44942C66.9115 1.66415 66.8574 1.95219 66.8574 2.31356V17.957H66.4071L54.8176 3.01272V15.7129C54.8176 16.0743 54.8717 16.3623 54.9804 16.577C55.0886 16.7918 55.2349 16.9594 55.4181 17.0798C55.6025 17.2003 55.8163 17.2827 56.0592 17.326C56.3016 17.3679 56.5567 17.3888 56.8251 17.3888V17.648C56.4905 17.648 56.2183 17.6441 56.0084 17.6349C55.7997 17.6264 55.6197 17.6179 55.469 17.6088C55.3195 17.6003 55.1776 17.5917 55.044 17.5826C54.9098 17.5741 54.7514 17.5695 54.5683 17.5695C54.3832 17.5695 54.2235 17.5741 54.0899 17.5826C53.9576 17.5917 53.8158 17.6003 53.665 17.6088C53.5136 17.6179 53.3374 17.6264 53.1358 17.6349C52.9354 17.6441 52.6683 17.648 52.3343 17.648V17.3888Z" fill="black"/>
<path d="M85.2143 0.739696C85.2143 1.15343 85.2098 1.55015 85.2016 1.92854C85.1927 2.30561 85.1888 2.684 85.1888 3.06239C85.1888 3.47613 85.2016 3.90688 85.227 4.35335C85.2524 4.80048 85.2652 5.25677 85.2652 5.72288H84.9624C84.8619 4.13994 84.3441 2.87516 83.4078 1.92854C82.4715 0.980606 81.1669 0.506641 79.4946 0.506641C78.8261 0.506641 78.1448 0.696489 77.4515 1.07488C76.7575 1.45392 76.1297 2.01364 75.5687 2.75339C75.0089 3.4938 74.5535 4.40573 74.2024 5.48982C73.8513 6.57392 73.6757 7.82168 73.6757 9.23179C73.6757 10.075 73.7756 10.9784 73.9759 11.942C74.1776 12.9057 74.5083 13.8012 74.9682 14.6287C75.4275 15.4549 76.0292 16.139 76.7722 16.6817C77.5164 17.2231 78.4323 17.4935 79.5201 17.4935C80.3393 17.4935 81.0912 17.3599 81.7769 17.0928C82.4639 16.8257 83.0529 16.4395 83.5452 15.9328C84.0388 15.4248 84.4268 14.8186 84.7105 14.1129C84.9955 13.4058 85.1545 12.6144 85.1888 11.7378H85.4891C85.4891 12.2353 85.4763 12.7643 85.4509 13.3247C85.4267 13.8837 85.4153 14.3263 85.4153 14.6523C85.4153 14.8251 85.4153 14.9894 85.4153 15.1446C85.4153 15.2984 85.4191 15.4706 85.428 15.6604C85.4363 15.849 85.4445 16.0729 85.4535 16.3308C85.4617 16.5894 85.4738 16.9082 85.4891 17.2866H85.2397L84.6367 16.2287C84.4872 16.3491 84.2703 16.5049 83.9854 16.6948C83.7004 16.8833 83.3448 17.0732 82.9193 17.263C82.4931 17.4516 81.9957 17.6139 81.4258 17.7501C80.8571 17.8876 80.2134 17.9569 79.4946 17.9569C78.2409 17.9569 77.0832 17.7638 76.0216 17.3782C74.9593 16.9907 74.0395 16.4224 73.261 15.6735C72.4837 14.9246 71.8781 13.9911 71.4443 12.8716C71.0099 11.7528 70.793 10.454 70.793 8.97517C70.793 7.7536 71.0143 6.60469 71.457 5.5291C71.8998 4.45417 72.5136 3.51213 73.2991 2.70364C74.086 1.89384 75.0102 1.25229 76.0725 0.778975C77.1341 0.306319 78.2918 0.0693359 79.5455 0.0693359C80.4818 0.0693359 81.3634 0.212049 82.1916 0.496167C83.0192 0.778975 83.7926 1.17045 84.512 1.6693L84.9624 0.739696H85.2143Z" fill="black"/>
<path d="M93.9386 8.48291C94.6917 8.48291 95.2476 8.29044 95.6076 7.9042C95.967 7.51665 96.147 6.97067 96.147 6.26496H96.3964C96.3964 6.65971 96.3919 6.98638 96.3837 7.24431C96.3748 7.5029 96.3665 7.71828 96.3582 7.8911C96.3512 8.06262 96.3436 8.20795 96.3353 8.32841C96.3264 8.44886 96.3226 8.57849 96.3226 8.71596C96.3226 8.85409 96.3264 8.97913 96.3353 9.09042C96.3436 9.20236 96.3512 9.3405 96.3582 9.50416C96.3665 9.66651 96.3748 9.87272 96.3837 10.1221C96.3919 10.3722 96.3964 10.695 96.3964 11.091H96.147C96.147 10.4207 95.967 9.89171 95.6076 9.50416C95.2476 9.11661 94.6917 8.92283 93.9386 8.92283H92.2339V14.524C92.2339 15.144 92.2879 15.6389 92.3967 16.0087C92.5048 16.3793 92.6969 16.6549 92.9717 16.8362C93.2478 17.0162 93.6116 17.1321 94.0632 17.1845C94.5161 17.2356 95.0848 17.2604 95.7705 17.2604C96.3722 17.2604 96.9364 17.2395 97.4625 17.1976C97.9898 17.1544 98.4535 17.0293 98.8542 16.8231C99.2562 16.6156 99.587 16.2929 99.8465 15.8542C100.106 15.4143 100.269 14.8081 100.335 14.0343H100.61L100.411 17.648C99.6582 17.665 98.9891 17.6781 98.4039 17.6873C97.8187 17.6958 97.1832 17.7004 96.4982 17.7004C95.0765 17.7004 93.9309 17.6781 93.0608 17.6349C92.1919 17.5917 91.4896 17.5694 90.9541 17.5694C90.6856 17.5694 90.456 17.574 90.2645 17.5825C90.0724 17.5917 89.8676 17.6002 89.6488 17.6087C89.4313 17.6179 89.1717 17.6264 88.8702 17.6349C88.57 17.6441 88.1693 17.648 87.6693 17.648V17.3887C87.9352 17.3887 88.1896 17.3678 88.4326 17.3259C88.675 17.2827 88.888 17.2002 89.0712 17.0797C89.2557 16.9593 89.4026 16.7917 89.5114 16.577C89.6195 16.3623 89.6743 16.0742 89.6743 15.7128V2.3135C89.6743 1.95214 89.6195 1.66409 89.5114 1.44937C89.4026 1.23464 89.2557 1.06705 89.0712 0.946597C88.888 0.826142 88.675 0.744965 88.4326 0.703068C88.1896 0.659861 87.9352 0.637603 87.6693 0.637603V0.378362C88.1693 0.378362 88.5662 0.382945 88.8601 0.391455C89.1533 0.400621 89.4046 0.409131 89.6132 0.417641C89.8218 0.426807 90.0177 0.435317 90.2009 0.443827C90.3854 0.452992 90.6118 0.45692 90.8803 0.45692C91.4483 0.45692 92.1378 0.430734 92.9488 0.378362C93.7592 0.325991 94.6662 0.299805 95.6687 0.299805C96.3213 0.299805 96.911 0.30897 97.437 0.325991C97.9643 0.343666 98.5623 0.361342 99.2308 0.378362L99.3809 3.7354H99.1316C99.0807 3.08075 98.9465 2.55572 98.7296 2.15901C98.512 1.76294 98.2194 1.46181 97.8518 1.25559C97.4835 1.05003 97.0567 0.912555 96.572 0.844472C96.0866 0.775079 95.5517 0.739728 94.9665 0.739728C94.817 0.739728 94.6414 0.744311 94.4398 0.752821C94.2394 0.761986 94.0391 0.770497 93.8393 0.779007C93.639 0.788172 93.4462 0.801265 93.2618 0.818286C93.0786 0.833998 92.9285 0.851019 92.8114 0.868039C92.426 0.920411 92.2339 1.15281 92.2339 1.56458V8.48291H93.9386Z" fill="black"/>
<mask id="mask0_1_1871" style="mask-type:luminance" maskUnits="userSpaceOnUse" x="4" y="5" width="10" height="10">
<path d="M4.27832 5.21191H13.5601V14.0078H4.27832V5.21191Z" fill="white"/>
</mask>
<g mask="url(#mask0_1_1871)">
<path d="M8.98259 6.73512L9.05638 6.61794C9.3776 5.99733 9.89474 5.6124 10.6078 5.46183C11.4143 5.3237 12.0886 5.4723 12.6305 5.90633C12.8207 6.04643 13.0128 6.29716 13.2056 6.65852C13.3748 7.0009 13.4708 7.39107 13.4937 7.82903C13.5357 8.4935 13.3404 9.19659 12.9079 9.93766C12.7291 10.3003 12.2158 10.9131 11.3685 11.7759C10.5881 12.517 9.74081 13.2607 8.82675 14.0076C6.58265 11.9749 5.33846 10.7324 5.09357 10.2781C4.55226 9.60379 4.2832 8.82868 4.28765 7.95473C4.32327 7.2896 4.49883 6.72202 4.81242 6.2533C4.93709 6.07065 5.08403 5.91222 5.25323 5.77933C5.48858 5.60454 5.72648 5.48736 5.96692 5.42778C6.60745 5.2818 7.16594 5.325 7.64236 5.55675C8.0749 5.77213 8.52207 6.16492 8.98259 6.73512Z" fill="#3078E3"/>
</g>
<mask id="mask1_1_1871" style="mask-type:luminance" maskUnits="userSpaceOnUse" x="8" y="6" width="6" height="7">
<path d="M8.37366 6.0498H13.5609V12.7534H8.37366V6.0498Z" fill="white"/>
</mask>
<g mask="url(#mask1_1_1871)">
<path d="M10.8648 6.06299C10.8514 6.06299 10.8393 6.06364 10.8272 6.06561C10.7172 6.08525 10.6759 6.20701 10.5378 6.26724C10.3998 6.32747 10.1657 6.32616 10.0938 6.40079C10.022 6.47476 10.1129 6.62468 10.0086 6.70716C9.90492 6.78965 9.6066 6.80536 9.51055 6.88981C9.41832 6.97099 9.51564 7.11763 9.6842 7.13334C9.68992 7.13399 9.69501 7.13465 9.70074 7.13465C9.70455 7.13465 9.70837 7.13465 9.71282 7.13465C9.86612 7.13596 10.0671 7.03841 10.1918 7.03972C10.1975 7.03972 10.2032 7.03972 10.209 7.04038C10.2217 7.04169 10.2338 7.04431 10.2446 7.04823C10.3591 7.0921 10.3381 7.31729 10.2433 7.40043C10.2058 7.43382 10.1568 7.4443 10.1027 7.4443C10.0887 7.4443 10.0748 7.44299 10.0608 7.44168C9.98888 7.43513 9.91128 7.41484 9.84068 7.40371C9.8235 7.40109 9.80696 7.39913 9.79043 7.39782C9.76943 7.39585 9.74908 7.39454 9.73 7.39454C9.64413 7.39389 9.5767 7.41156 9.53663 7.4443C9.48192 7.49078 9.48065 7.56802 9.3846 7.62891C9.28855 7.68979 9.09709 7.73431 9.07038 7.81483C9.04303 7.89535 9.18042 8.01253 9.14925 8.05443C9.11872 8.09567 8.92026 8.06228 8.80386 8.14215C8.69254 8.21809 8.65501 8.39746 8.79114 8.4099C8.79559 8.41056 8.80004 8.41056 8.80513 8.41121C8.80767 8.41121 8.81022 8.41121 8.81276 8.41056C8.97306 8.40597 9.33054 8.20303 9.56334 8.19387C9.57034 8.19387 9.5767 8.19387 9.58306 8.19387C9.59515 8.19387 9.60596 8.19452 9.61741 8.19518C9.81523 8.21416 9.92591 8.3811 10.1485 8.51792C10.3903 8.66587 10.7636 8.77716 10.6809 8.83673C10.6402 8.86619 10.4895 8.88321 10.3177 8.8819C10.2503 8.88125 10.1803 8.87798 10.1116 8.87143C10.0003 8.86095 9.89474 8.84262 9.81905 8.81382C9.57797 8.72282 9.63522 8.53363 9.49274 8.49304C9.48065 8.48911 9.46729 8.48715 9.45203 8.48519C9.44249 8.48453 9.43231 8.48388 9.42213 8.48388C9.25675 8.48257 8.97815 8.5788 8.78796 8.69598C8.5666 8.83215 8.46546 8.99712 8.41394 9.28386C8.36305 9.57059 8.36178 9.97975 8.55388 10.1873C8.74597 10.3941 9.13017 10.3994 9.31654 10.4635C9.50228 10.5277 9.48956 10.6514 9.46729 10.8635C9.44567 11.075 9.4145 11.3748 9.44121 11.5358C9.46857 11.6969 9.55317 11.7198 9.60151 11.943C9.64985 12.1663 9.66194 12.5892 9.80251 12.6946C9.82414 12.7103 9.84831 12.7188 9.87502 12.7214C9.88011 12.7221 9.88457 12.7221 9.89029 12.7221C10.036 12.7234 10.2325 12.5532 10.319 12.4033C10.424 12.2213 10.3648 12.0694 10.4316 11.9581C10.499 11.8475 10.6924 11.7774 10.7274 11.638C10.7624 11.4992 10.6383 11.2904 10.7732 11.0409C10.908 10.7915 11.3024 10.5008 11.3355 10.3686C11.3686 10.237 11.0416 10.2639 10.8788 10.1218C10.7159 9.9804 10.7185 9.66945 10.7694 9.63868C10.7725 9.63671 10.7757 9.63606 10.7789 9.63606C10.7795 9.63606 10.7802 9.63606 10.7808 9.63606C10.8349 9.6413 10.9303 9.86453 11.0562 9.96469C11.1065 10.0053 11.1625 10.0256 11.2184 10.0308C11.2273 10.0315 11.2369 10.0321 11.2458 10.0321C11.3298 10.0328 11.4131 10.0014 11.4799 9.95422C11.5988 9.87042 11.6669 9.73753 11.6306 9.63082C11.5944 9.52411 11.4532 9.44359 11.3126 9.36372C11.3075 9.2269 11.303 9.09074 11.3202 9.09074C11.3208 9.09074 11.3215 9.09139 11.3221 9.09205C11.3425 9.10448 11.3876 9.27142 11.5238 9.34736C11.6592 9.42395 11.8863 9.40824 12.0275 9.46258C12.1681 9.51691 12.2222 9.64064 12.2387 9.80627C12.2553 9.97189 12.2349 10.1788 12.2858 10.2822C12.3373 10.3863 12.4607 10.3856 12.5345 10.457C12.5396 10.4622 12.5447 10.4675 12.5491 10.4734C12.5847 10.4282 12.6178 10.3843 12.649 10.3424C12.6108 10.2429 12.5466 10.1709 12.6216 10.0583C12.6884 9.9588 12.8646 9.82722 12.9969 9.78074C13.3678 9.09728 13.5338 8.44656 13.4943 7.82923C13.4714 7.39127 13.3754 7.0011 13.2062 6.65872C13.1375 6.52975 13.0688 6.41519 13.0007 6.31503C12.7953 6.36085 12.5154 6.35758 12.3634 6.36544C12.2095 6.37329 12.1866 6.39228 12.0682 6.39882C11.9499 6.40537 11.7362 6.39882 11.5676 6.48262C11.3984 6.56641 11.2744 6.74055 11.1237 6.79423C11.0829 6.80863 11.0397 6.81452 10.999 6.81452C10.9863 6.81452 10.9742 6.81387 10.9627 6.81256C10.8667 6.8034 10.7872 6.76412 10.7744 6.72942C10.7541 6.67705 10.8915 6.63777 11.0041 6.55332C11.1173 6.46887 11.2051 6.33925 11.1606 6.2332C11.123 6.14547 10.9933 6.07412 10.887 6.06364C10.8794 6.06299 10.8718 6.06299 10.8648 6.06299Z" fill="#68CC75"/>
</g>
<path d="M5.76356 5.95703C5.75911 5.95703 5.75465 5.95769 5.74957 5.95834C5.69041 5.97012 5.61917 6.06308 5.53075 6.06701C5.52821 6.06767 5.52566 6.06767 5.52312 6.06767C5.51867 6.06767 5.51421 6.06701 5.50976 6.06701C5.42643 6.05916 5.33293 5.98715 5.27695 5.97994C5.27632 5.97994 5.27568 5.97994 5.27505 5.97994C5.2725 5.97929 5.27059 5.97929 5.26869 5.97929C5.21462 5.97929 5.19808 6.04279 5.14147 6.06374C5.12493 6.07029 5.10458 6.0729 5.08231 6.07225C5.07213 6.07225 5.06196 6.07159 5.05114 6.07094C5.02634 6.06832 4.99899 6.06374 4.97036 6.05785C4.96973 6.05916 4.96845 6.06047 4.96718 6.06177C4.9182 6.11938 4.86668 6.18354 4.81261 6.25359C4.62115 6.53967 4.48121 6.86241 4.39343 7.22116C4.42587 7.25258 4.45132 7.30364 4.45831 7.4038C4.46976 7.56747 4.42969 7.86402 4.46976 8.02703C4.5092 8.19069 4.62815 8.2208 4.67585 8.27449C4.72292 8.32817 4.69939 8.40476 4.69812 8.46237C4.69748 8.51998 4.71911 8.55795 4.74137 8.59592C4.763 8.63978 4.78462 8.68364 4.82343 8.71114C4.84442 8.72619 4.86986 8.73667 4.89149 8.73863C4.89403 8.73863 4.89658 8.73929 4.89912 8.73929C4.91439 8.73929 4.92711 8.7347 4.93283 8.72357C4.9481 8.69739 4.92329 8.63192 4.88894 8.57628C4.85459 8.51998 4.81134 8.4735 4.79353 8.39887C4.77699 8.32948 4.78144 8.23586 4.81388 8.23652C4.81452 8.23652 4.81516 8.23652 4.81579 8.23652C4.8177 8.23652 4.81961 8.23717 4.82152 8.23783C4.86095 8.25354 4.9322 8.38643 4.96209 8.47481C4.99135 8.56319 4.97863 8.60639 5.01107 8.67251C5.04351 8.73929 5.12048 8.82832 5.1262 8.88069C5.13193 8.93306 5.06577 8.94812 5.08613 8.98609C5.10648 9.02406 5.21398 9.0856 5.27823 9.12226C5.34247 9.15892 5.3641 9.17201 5.38572 9.18445C5.45379 9.25842 5.52185 9.3324 5.6039 9.35531C5.61917 9.35924 5.63443 9.3612 5.6497 9.36317C5.6885 9.36644 5.72794 9.36382 5.75911 9.36709C5.78328 9.36906 5.80236 9.37495 5.81317 9.38935C5.84243 9.42994 5.8049 9.53992 5.86215 9.58771C5.9194 9.63485 6.07142 9.61913 6.13249 9.6643C6.19355 9.70948 6.16366 9.81487 6.11913 9.9314C6.0746 10.0486 6.01481 10.1769 6.01036 10.2797C6.00654 10.3818 6.05679 10.4584 6.08287 10.5644C6.10895 10.6705 6.10959 10.806 6.17956 10.8918C6.24889 10.9769 6.38756 11.0129 6.41237 11.1504C6.43399 11.2708 6.36911 11.4685 6.31123 11.6512C6.47597 11.8142 6.65662 11.9896 6.85317 12.1782C6.86717 12.1631 6.87925 12.1448 6.88625 12.1179C6.90024 12.0701 6.89897 11.9955 6.92378 11.9759C6.93141 11.97 6.94159 11.9693 6.95304 11.9693C6.95876 11.9693 6.96512 11.97 6.97148 11.97C6.99502 11.97 7.02301 11.9667 7.05099 11.9372C7.10252 11.8836 7.15404 11.7402 7.20556 11.5975C7.28253 11.4999 7.3595 11.4017 7.43265 11.3795C7.44855 11.3742 7.46381 11.3729 7.47844 11.3729C7.48735 11.3729 7.49625 11.3736 7.50452 11.3749C7.51406 11.3756 7.52297 11.3769 7.53124 11.3775C7.53824 11.3782 7.54523 11.3788 7.55223 11.3788C7.57704 11.3788 7.59803 11.3729 7.61393 11.3474C7.65273 11.2859 7.65973 11.1111 7.7068 10.9762C7.75387 10.8414 7.83974 10.7471 7.87091 10.6751C7.90208 10.6031 7.8779 10.5546 7.85373 10.5055C7.81239 10.4322 7.77104 10.3589 7.69598 10.3392C7.68581 10.3366 7.67436 10.3347 7.66291 10.3334C7.63174 10.3307 7.59739 10.332 7.56304 10.3288C7.51852 10.3248 7.47463 10.3124 7.43901 10.2738C7.36649 10.1933 7.32896 9.99883 7.26027 9.91045C7.19157 9.82207 7.0917 9.83975 7.02619 9.80898C6.96131 9.77821 6.93077 9.69769 6.87925 9.64205C6.83791 9.59818 6.78384 9.56938 6.73295 9.5648C6.7285 9.56414 6.72341 9.56414 6.71896 9.56414C6.71005 9.56414 6.70115 9.5648 6.69288 9.56611C6.64644 9.57462 6.60764 9.60735 6.5752 9.60735C6.57393 9.60735 6.57266 9.60735 6.57139 9.6067C6.56248 9.60604 6.55421 9.60277 6.54594 9.59491C6.50841 9.55956 6.48043 9.43518 6.4429 9.4247C6.44163 9.4247 6.44035 9.42405 6.43908 9.42405C6.43845 9.42405 6.43845 9.42405 6.43781 9.42405C6.40028 9.42405 6.35321 9.51963 6.27115 9.55825C6.24253 9.57134 6.21009 9.57724 6.17765 9.57724C6.17065 9.57724 6.16366 9.57658 6.15666 9.57593C6.09878 9.57069 6.04471 9.54516 6.02117 9.50195C5.98046 9.43059 6.02372 9.31079 5.98937 9.25973C5.95566 9.20867 5.84498 9.22569 5.82526 9.17725C5.8049 9.1288 5.87551 9.01489 5.87106 8.95205C5.86851 8.9167 5.8418 8.89771 5.80936 8.89509C5.80681 8.89444 5.80363 8.89444 5.80109 8.89444C5.77883 8.89444 5.75465 8.90098 5.7343 8.91539C5.68278 8.95074 5.65733 9.03126 5.59818 9.0306C5.59627 9.0306 5.595 9.0306 5.59372 9.0306C5.59309 9.0306 5.59245 9.02995 5.59245 9.02995C5.53012 9.02406 5.43216 8.93175 5.42071 8.8329C5.40926 8.73339 5.48559 8.62734 5.56128 8.52063C5.59118 8.49641 5.62171 8.47219 5.65479 8.47219C5.65606 8.47219 5.6567 8.47219 5.65797 8.47219C5.65924 8.47219 5.65988 8.47219 5.66115 8.47284C5.69168 8.47546 5.72539 8.49772 5.77883 8.5023C5.78455 8.50296 5.79091 8.50361 5.79727 8.50361C5.79791 8.50361 5.79854 8.50361 5.79854 8.50361C5.83226 8.50361 5.87233 8.49707 5.90922 8.49772C5.91622 8.49772 5.92258 8.49772 5.92958 8.49838C5.95756 8.50099 5.98237 8.5095 5.99955 8.53111C6.04153 8.58479 6.03199 8.71965 6.05107 8.76678C6.05679 8.77987 6.06443 8.78642 6.07397 8.78708C6.0746 8.78708 6.07524 8.78708 6.07588 8.78708C6.0975 8.78773 6.12549 8.75762 6.14267 8.72161C6.1662 8.67055 6.16684 8.60836 6.16684 8.54616C6.13821 8.48266 6.10959 8.41916 6.15857 8.37203C6.20755 8.32424 6.33476 8.29347 6.38501 8.21491C6.43463 8.13701 6.40728 8.01132 6.44608 7.96287C6.48488 7.91443 6.59047 7.94323 6.65471 7.90461C6.71896 7.86599 6.74249 7.76059 6.77621 7.7272C6.78511 7.71804 6.79529 7.71411 6.80547 7.71476C6.80674 7.71476 6.80801 7.71476 6.80928 7.71476C6.83663 7.71738 6.86717 7.74422 6.8977 7.77041C6.95876 7.66435 7.01983 7.55765 7.10633 7.55503C7.10761 7.55503 7.10888 7.55503 7.11079 7.55503C7.11397 7.55503 7.11778 7.55503 7.12096 7.55568C7.20429 7.56354 7.30606 7.65192 7.3595 7.65715C7.36013 7.65715 7.36077 7.65715 7.3614 7.65715C7.36204 7.65715 7.36268 7.65715 7.36331 7.65715C7.41738 7.65781 7.41674 7.56354 7.37095 7.50527C7.32515 7.44636 7.23355 7.4241 7.23228 7.39333C7.23037 7.36256 7.31942 7.32394 7.30034 7.25258C7.28126 7.18188 7.1534 7.0791 7.02555 6.97697C7.01665 6.88729 7.00838 6.79825 6.97721 6.73279C6.95113 6.67649 6.90851 6.63852 6.8818 6.6359C6.88116 6.6359 6.88052 6.6359 6.87989 6.6359C6.87671 6.6359 6.87353 6.63656 6.87098 6.63787C6.84745 6.64899 6.85444 6.7125 6.84999 6.76421C6.84681 6.80087 6.83854 6.83099 6.82073 6.83099C6.8201 6.83099 6.8201 6.83099 6.81946 6.83099C6.8131 6.83033 6.80483 6.82575 6.79592 6.81593C6.76094 6.77796 6.70687 6.66274 6.64326 6.59924C6.61019 6.56651 6.5752 6.54687 6.54149 6.5436C6.53831 6.5436 6.53513 6.5436 6.53195 6.5436C6.50269 6.54294 6.4747 6.55473 6.44989 6.5796C6.39265 6.6359 6.3513 6.76094 6.37102 6.82575C6.39074 6.88991 6.47216 6.89383 6.45626 6.97632C6.44099 7.0588 6.3284 7.2205 6.27624 7.2349C6.2737 7.23556 6.27115 7.23621 6.26861 7.23621C6.26797 7.23621 6.26734 7.23621 6.2667 7.23621C6.22536 7.23229 6.22981 7.11118 6.19164 7.03393C6.15157 6.95144 6.06252 6.91871 5.97347 6.88663C5.89905 6.84866 5.82399 6.81004 5.78582 6.75046C5.74702 6.69089 5.74448 6.60972 5.78328 6.55865C5.82208 6.50694 5.90286 6.48533 5.96138 6.43558C6.02054 6.38648 6.05743 6.30989 6.09432 6.23264C6.11341 6.25817 6.13185 6.28305 6.1592 6.28566C6.16111 6.28566 6.16238 6.28566 6.16366 6.28566C6.17638 6.28632 6.19164 6.28108 6.20882 6.2693C6.26734 6.23067 6.35639 6.11546 6.31123 6.07159C6.29914 6.06047 6.27752 6.05392 6.24889 6.0513C6.23871 6.05065 6.22854 6.04999 6.21645 6.04999C6.13694 6.04934 6.02117 6.06767 5.90541 6.086C5.86279 6.02446 5.82017 5.96227 5.76928 5.95769C5.76738 5.95703 5.76547 5.95703 5.76356 5.95703Z" fill="#68CC75"/>
<path d="M6.63248 5.33912C6.59749 5.33847 6.56315 5.33912 6.5288 5.34043C6.52053 5.42161 6.5746 5.54534 6.62548 5.58724C6.63884 5.59836 6.65156 5.6036 6.66492 5.60491C6.66683 5.60491 6.66874 5.60491 6.67064 5.60491C6.71453 5.60557 6.76033 5.56367 6.82012 5.54272C6.84557 5.53355 6.87355 5.52832 6.90281 5.52897C6.90981 5.52897 6.91681 5.52897 6.92381 5.52963C6.9836 5.53552 7.04975 5.56367 7.11654 5.62782C7.22658 5.73322 7.3398 5.93551 7.39069 6.04483C7.44158 6.15416 7.43013 6.16987 7.37415 6.21112C7.31818 6.25236 7.21831 6.31848 7.25457 6.46316C7.28892 6.60129 7.44794 6.81077 7.56562 6.8219C7.5688 6.8219 7.57198 6.82256 7.57452 6.82256C7.57706 6.82256 7.57897 6.82256 7.58152 6.8219C7.70046 6.8147 7.76598 6.57706 7.85376 6.45857C7.94154 6.34008 8.05222 6.34139 8.1718 6.32371C8.29139 6.30538 8.41988 6.26938 8.47394 6.22486C8.48539 6.2157 8.49366 6.20653 8.49939 6.19671C8.20806 5.90932 7.92246 5.69656 7.64258 5.55712C7.30228 5.41441 6.96515 5.34109 6.63248 5.33912Z" fill="#68CC75"/>
<path d="M6.20674 5.70922L6.21119 5.69874C6.23346 5.64048 6.25826 5.61626 6.28625 5.62542C6.29325 5.62542 6.30851 5.63459 6.33141 5.65226C6.33586 5.65488 6.37339 5.69154 6.44464 5.76355C6.46817 5.78385 6.48216 5.79497 6.48725 5.79563C6.49934 5.80087 6.50952 5.80152 6.51906 5.79759L6.55977 5.77141C6.57058 5.76682 6.57885 5.76552 6.58394 5.76617C6.5903 5.76617 6.59857 5.76879 6.60811 5.77272C6.61193 5.77272 6.62783 5.78254 6.65709 5.80283C6.67935 5.81723 6.73533 5.8683 6.82501 5.95602C6.87717 6.02345 6.92233 6.07255 6.95986 6.10331C6.98722 6.12426 7.00439 6.13605 7.01075 6.13801L7.13479 6.19235C7.15959 6.20806 7.17359 6.21919 7.17613 6.22442C7.19203 6.24275 7.20158 6.26632 7.20603 6.29513C7.20857 6.30233 7.20857 6.32458 7.20539 6.36255C7.20285 6.37761 7.19967 6.39136 7.19458 6.40445C7.18949 6.41754 7.18313 6.42867 7.1755 6.43784L7.16277 6.44962C7.13988 6.46141 7.12143 6.46272 7.1068 6.45486L7.08581 6.44504C7.07118 6.43718 7.05655 6.42671 7.04065 6.41427C7.02093 6.39921 6.98085 6.3619 6.92043 6.30233C6.91279 6.29382 6.90389 6.28727 6.89435 6.28269L6.8918 6.28465C6.89053 6.28792 6.89117 6.29316 6.89371 6.30102C6.91788 6.37434 6.93124 6.41754 6.93315 6.43129C6.93951 6.46337 6.94142 6.48759 6.93824 6.50461C6.9306 6.53669 6.92043 6.55568 6.9077 6.56222C6.89435 6.57335 6.87654 6.58055 6.85427 6.58317C6.81038 6.5871 6.75568 6.57466 6.68826 6.5452C6.5992 6.50199 6.53814 6.4673 6.5057 6.44111C6.43509 6.39136 6.39884 6.34881 6.39693 6.31411L6.40011 6.2984C6.40456 6.28858 6.41156 6.27941 6.4211 6.27156L6.48216 6.22377L6.49425 6.21068C6.50188 6.20217 6.5057 6.19235 6.50634 6.18187L6.50379 6.16485L6.49425 6.14587C6.48534 6.13277 6.47326 6.11837 6.45672 6.10266C6.44082 6.0876 6.42301 6.07189 6.40265 6.05487C6.29388 5.97107 6.23346 5.92198 6.2201 5.90823C6.20738 5.89906 6.1902 5.87877 6.16794 5.84669C6.15458 5.82312 6.15076 5.80152 6.15585 5.78319C6.16476 5.75635 6.18193 5.73147 6.20674 5.70922Z" fill="#68CC75"/>
<path d="M11.7257 5.47168C12.4336 6.2003 12.8515 6.77116 12.9807 7.18358C13.0894 7.5443 13.1276 7.81467 13.0964 7.99404C13.0818 8.22513 13.0239 8.47455 12.9234 8.74361C12.6486 9.38124 12.3287 9.92198 11.9636 10.3665C11.3478 11.1233 10.8275 11.6352 10.4013 11.9036C9.91792 12.2276 9.43386 12.4273 8.95044 12.5026C8.64894 12.5609 8.25647 12.5877 7.77432 12.5838C7.6153 12.5825 7.4461 12.5785 7.26672 12.57C7.71771 12.9949 8.23803 13.4741 8.82704 14.0076C9.74109 13.2607 10.5884 12.517 11.3688 11.7759C11.9559 11.1782 12.3828 10.7004 12.6486 10.3423C12.7669 10.1838 12.8535 10.049 12.9082 9.93769C13.3407 9.19663 13.536 8.49354 13.494 7.82907C13.4711 7.39111 13.375 7.00094 13.2058 6.65856C13.0125 6.29719 12.821 6.04646 12.6315 5.90702C12.3834 5.7067 12.1054 5.56726 11.7988 5.4887L11.7257 5.47168Z" fill="black" fill-opacity="0.125"/>
</svg>
