<svg width="20" height="20" viewBox="0 0 20 20" fill="none" xmlns="http://www.w3.org/2000/svg">
<path d="M5.51597 10.8237C4.84434 10.8237 4.29871 10.278 4.29871 9.60639C4.29871 8.93675 4.84434 8.39111 5.51597 8.39111C6.1876 8.39111 6.73323 8.93675 6.73323 9.60639C6.73323 10.278 6.1876 10.8237 5.51597 10.8237Z" fill="#141414"/>
<path d="M10.248 10.8237C9.5764 10.8237 9.03076 10.278 9.03076 9.60639C9.03076 8.93675 9.5764 8.39111 10.248 8.39111C10.9197 8.39111 11.4653 8.93675 11.4653 9.60639C11.4653 10.278 10.9197 10.8237 10.248 10.8237Z" fill="#141414"/>
<path d="M14.9804 10.8237C14.3088 10.8237 13.7631 10.278 13.7631 9.60639C13.7631 8.93675 14.3088 8.39111 14.9804 8.39111C15.652 8.39111 16.1976 8.93675 16.1976 9.60639C16.1976 10.278 15.652 10.8237 14.9804 10.8237Z" fill="#141414"/>
</svg>
