<svg width="30" height="30" viewBox="0 0 30 30" fill="none" xmlns="http://www.w3.org/2000/svg">
<path fill-rule="evenodd" clip-rule="evenodd" d="M10.8752 7.54204C11.9692 6.44808 13.4529 5.8335 15 5.8335C16.5471 5.8335 18.0309 6.44808 19.1248 7.54204C20.2188 8.636 20.8334 10.1197 20.8334 11.6668C20.8334 14.4607 21.4309 16.1957 21.9816 17.2053C22.2581 17.7122 22.5273 18.0447 22.7144 18.2421C22.8081 18.3411 22.8817 18.4067 22.9261 18.4436C22.9483 18.4621 22.9632 18.4735 22.9696 18.4782C22.9706 18.479 22.9714 18.4796 22.9719 18.48C23.2707 18.6852 23.4029 19.0606 23.2976 19.4083C23.1912 19.7598 22.8672 20.0002 22.5 20.0002H7.50002C7.1328 20.0002 6.80886 19.7598 6.70245 19.4083C6.59716 19.0606 6.72936 18.6852 7.0281 18.48C7.02868 18.4796 7.02948 18.479 7.03048 18.4782C7.0369 18.4735 7.05177 18.4621 7.07396 18.4436C7.11831 18.4067 7.19196 18.3411 7.28569 18.2421C7.47271 18.0447 7.74195 17.7122 8.01844 17.2053C8.56913 16.1957 9.16669 14.4607 9.16669 11.6668C9.16669 10.1197 9.78127 8.636 10.8752 7.54204ZM7.03652 18.4743C7.03659 18.4742 7.03665 18.4742 7.03672 18.4742C7.03672 18.4742 7.03671 18.4742 7.03671 18.4742L7.03652 18.4743ZM9.29113 18.3335H20.7089C20.6455 18.2296 20.5819 18.1196 20.5184 18.0034C19.8191 16.7213 19.1667 14.7063 19.1667 11.6668C19.1667 10.5618 18.7277 9.50195 17.9463 8.72055C17.1649 7.93915 16.1051 7.50016 15 7.50016C13.895 7.50016 12.8351 7.93915 12.0537 8.72055C11.2723 9.50195 10.8334 10.5618 10.8334 11.6668C10.8334 14.7063 10.1809 16.7213 9.4816 18.0034C9.41819 18.1196 9.35453 18.2296 9.29113 18.3335Z" fill="#364960"/>
<path fill-rule="evenodd" clip-rule="evenodd" d="M13.1402 21.7791C13.5383 21.5482 14.0482 21.6837 14.2792 22.0818C14.3524 22.2081 14.4576 22.3129 14.5841 22.3858C14.7106 22.4587 14.854 22.497 15 22.497C15.146 22.497 15.2894 22.4587 15.4159 22.3858C15.5424 22.3129 15.6476 22.2081 15.7208 22.0818C15.9518 21.6837 16.4617 21.5482 16.8598 21.7791C17.2579 22.0101 17.3934 22.52 17.1625 22.9181C16.9427 23.297 16.6273 23.6114 16.2478 23.83C15.8683 24.0486 15.438 24.1637 15 24.1637C14.562 24.1637 14.1317 24.0486 13.7522 23.83C13.3727 23.6114 13.0573 23.297 12.8375 22.9181C12.6066 22.52 12.7421 22.0101 13.1402 21.7791Z" fill="#364960"/>
</svg>
