<svg width="25" height="24" viewBox="0 0 25 24" fill="none" xmlns="http://www.w3.org/2000/svg">
<path d="M12.8605 10.87C12.7605 10.86 12.6405 10.86 12.5305 10.87C10.1505 10.79 8.2605 8.84 8.2605 6.44C8.2605 3.99 10.2405 2 12.7005 2C15.1505 2 17.1405 3.99 17.1405 6.44C17.1305 8.84 15.2405 10.79 12.8605 10.87Z" stroke="#292D32" stroke-width="1.5" stroke-linecap="round" stroke-linejoin="round"/>
<path d="M7.86065 14.56C5.44065 16.18 5.44065 18.82 7.86065 20.43C10.6107 22.27 15.1207 22.27 17.8707 20.43C20.2907 18.81 20.2907 16.17 17.8707 14.56C15.1307 12.73 10.6207 12.73 7.86065 14.56Z" stroke="#292D32" stroke-width="1.5" stroke-linecap="round" stroke-linejoin="round"/>
</svg>
