<svg width="24" height="24" viewBox="0 0 24 24" fill="none" xmlns="http://www.w3.org/2000/svg">
<path d="M21.426 11.0952L4.42601 3.09517C4.25482 3.01462 4.0643 2.98428 3.87657 3.00768C3.68883 3.03108 3.51158 3.10725 3.36541 3.22735C3.21923 3.34745 3.11012 3.50656 3.05076 3.68619C2.99139 3.86582 2.98419 4.05861 3.03001 4.24217L4.24201 9.09117L12 12.0002L4.24201 14.9092L3.03001 19.7582C2.98333 19.9419 2.98992 20.135 3.04902 20.3151C3.10811 20.4952 3.21726 20.6547 3.3637 20.7751C3.51014 20.8954 3.68782 20.9715 3.87594 20.9946C4.06406 21.0176 4.25486 20.9866 4.42601 20.9052L21.426 12.9052C21.5978 12.8244 21.7431 12.6964 21.8448 12.5362C21.9466 12.3759 22.0006 12.19 22.0006 12.0002C22.0006 11.8103 21.9466 11.6244 21.8448 11.4642C21.7431 11.3039 21.5978 11.1759 21.426 11.0952Z" fill="#5DC482"/>
</svg>
