<svg width="22" height="22" viewBox="0 0 22 22" fill="none" xmlns="http://www.w3.org/2000/svg">
<path d="M19.6813 2.31982H7.5285V6.79031C6.37628 7.02582 5.30936 7.56904 4.44109 8.36227C3.57283 9.15549 2.93564 10.1691 2.59722 11.2954C2.25879 12.4217 2.23178 13.6186 2.51904 14.7591C2.8063 15.8995 3.3971 16.9408 4.2287 17.7724C5.06029 18.604 6.10161 19.1948 7.24203 19.4821C8.38246 19.7693 9.5794 19.7423 10.7057 19.4039C11.832 19.0655 12.8456 18.4283 13.6388 17.56C14.4321 16.6917 14.9753 15.6248 15.2108 14.4726H19.6813V2.31982ZM15.3271 12.7365C15.2221 11.1632 14.5497 9.68139 13.4347 8.5664C12.3197 7.45141 10.8379 6.77898 9.26461 6.67399V4.05594H17.9452V12.7365H15.3271ZM8.83059 8.39621C10.0968 8.39621 11.3112 8.89922 12.2065 9.79458C13.1019 10.6899 13.6049 11.9043 13.6049 13.1705C13.6049 14.4367 13.1019 15.6511 12.2065 16.5465C11.3112 17.4418 10.0968 17.9448 8.83059 17.9448C7.56436 17.9448 6.35 17.4418 5.45464 16.5465C4.55929 15.6511 4.05628 14.4367 4.05628 13.1705C4.05628 11.9043 4.55929 10.6899 5.45464 9.79458C6.35 8.89922 7.56436 8.39621 8.83059 8.39621Z" fill="white"/>
</svg>
